HIERARCHY
ROOT Hips
{
	OFFSET 0.000000 0.000000 0.000000 
	CHANNELS 6 Xposition Yposition Zposition Zrotation Yrotation Xrotation
	JOINT LeftUpLeg
	{
		OFFSET 1.363060 -1.794630 0.839290 
		CHANNELS 3 Zrotation Yrotation Xrotation
		JOINT LeftLeg
		{
			OFFSET 2.448110 -6.726130 0.000000 
			CHANNELS 3 Zrotation Yrotation Xrotation
			JOINT LeftFoot
			{
				OFFSET 2.562200 -7.039590 0.000000 
				CHANNELS 3 Zrotation Yrotation Xrotation
				JOINT LeftToeBase
				{
					OFFSET 0.157640 -0.433110 2.322550 
					CHANNELS 3 Zrotation Yrotation Xrotation
					End Site
					{
						OFFSET 0.000000 0.000000 0.000000 
					}
				}
			}
		}
	}
	JOINT RightUpLeg
	{
		OFFSET -1.305520 -1.794630 0.839290 
		CHANNELS 3 Zrotation Yrotation Xrotation
		JOINT RightLeg
		{
			OFFSET -2.542530 -6.985550 0.000000 
			CHANNELS 3 Zrotation Yrotation Xrotation
			JOINT RightFoot
			{
				OFFSET -2.568260 -7.056230 0.000000 
				CHANNELS 3 Zrotation Yrotation Xrotation
				JOINT RightToeBase
				{
					OFFSET -0.164730 -0.452590 2.363150 
					CHANNELS 3 Zrotation Yrotation Xrotation
					End Site
					{
						OFFSET 0.000000 0.000000 0.000000 
					}
				}
			}
		}
	}
	JOINT Spine
	{
		OFFSET 0.028270 2.035590 -0.193380 
		CHANNELS 3 Zrotation Yrotation Xrotation
		JOINT Spine1
		{
			OFFSET 0.056720 2.048850 -0.042750 
			CHANNELS 3 Zrotation Yrotation Xrotation
			JOINT Neck1
			{
				OFFSET -0.054170 1.746240 0.172020 
				CHANNELS 3 Zrotation Yrotation Xrotation
				JOINT Head
				{
					OFFSET 0.104070 1.761360 -0.123970 
					CHANNELS 3 Zrotation Yrotation Xrotation
					End Site
					{
						OFFSET 0.000000 0.000000 0.000000 
					}
				}
			}
			JOINT LeftArm
			{
				OFFSET 3.362410 1.200890 -0.311210 
				CHANNELS 3 Zrotation Yrotation Xrotation
				JOINT LeftForeArm
				{
					OFFSET 4.983000 -0.000000 -0.000000 
					CHANNELS 3 Zrotation Yrotation Xrotation
					JOINT LeftHand
					{
						OFFSET 3.483560 -0.000000 -0.000000 
						CHANNELS 3 Zrotation Yrotation Xrotation
						JOINT LeftHandIndex1
						{
							OFFSET 0.715260 -0.000000 -0.000000 
							CHANNELS 3 Zrotation Yrotation Xrotation
							End Site
							{
								OFFSET 0.000000 0.000000 0.000000 
							}
						}
					}
				}
			}
			JOINT RightArm
			{
				OFFSET -3.136600 1.374050 -0.404650 
				CHANNELS 3 Zrotation Yrotation Xrotation
				JOINT RightForeArm
				{
					OFFSET -5.241900 -0.000000 -0.000000 
					CHANNELS 3 Zrotation Yrotation Xrotation
					JOINT RightHand
					{
						OFFSET -3.444170 -0.000000 -0.000000 
						CHANNELS 3 Zrotation Yrotation Xrotation
						JOINT RightHandIndex1
						{
							OFFSET -0.622530 -0.000000 -0.000000 
							CHANNELS 3 Zrotation Yrotation Xrotation
							End Site
							{
								OFFSET 0.000000 0.000000 0.000000 
							}
						}
					}
				}
			}
		}
	}
}
MOTION
Frames: 12
Frame Time: 0.041667
24.784506 14.266920 -9.595856 94.495148 -89.666260 -122.244462 36.580459 -4.946980 -6.469216 -64.541709 21.893787 4.638398 16.225837 21.793479 68.914782 1.146300 6.798400 19.119500 -33.808985 14.563386 -6.479945 56.653646 -19.589197 -1.521178 -17.753051 -24.035757 73.545565 -0.550400 -4.752900 13.205000 30.597361 37.152454 8.167948 -5.418931 -12.046422 3.452125 -0.560471 16.528942 8.929846 0.963600 7.634200 4.107900 -83.021542 -41.147674 53.668924 45.990480 -52.575445 -23.313565 -4.286758 -7.247850 26.306911 -7.125000 0.000000 0.000000 69.718001 33.207495 42.012882 -48.613778 51.558693 -32.232721 -1.644905 2.208952 6.642824 7.125000 0.000000 0.000000 
24.778673 14.262107 -9.595126 89.094120 -89.235336 -115.540564 35.643231 -1.602727 -5.789648 -64.221360 20.297237 3.234252 15.798197 21.174795 70.630667 0.757400 5.558100 15.507400 -35.262124 15.360913 -7.119785 57.189947 -20.538648 -1.295958 -17.795568 -24.658181 73.001104 -0.879900 -5.980100 16.726600 21.627884 45.131051 5.158627 -2.678530 -16.322494 2.290130 0.294082 16.233852 9.440355 1.558700 7.520200 4.092500 -83.331771 -41.017907 53.275190 46.424089 -53.201415 -23.599480 -4.188961 -6.940756 25.861080 -7.125000 0.000000 0.000000 72.131544 32.140743 43.676356 -49.132434 53.890340 -32.303688 -1.690382 2.083372 6.911835 7.125000 0.000000 0.000000 
24.802442 14.297833 -9.599064 92.558484 -89.663573 -119.859648 35.794286 -3.077275 -6.307665 -64.189041 21.763208 5.025071 15.762796 22.413886 69.444052 1.288600 7.192800 20.287900 -34.185785 14.701236 -6.872037 56.703349 -19.918282 -1.125087 -17.831600 -25.070533 73.382062 -0.990800 -6.335200 17.760200 27.817560 40.694573 6.091567 -4.317880 -13.739009 3.642622 -0.329631 15.651590 9.163297 1.369000 7.185700 4.140900 -83.696710 -40.958592 53.404509 46.332935 -53.048968 -23.656908 -4.189109 -7.133746 25.786896 -7.125000 0.000000 0.000000 70.427552 32.854480 42.324689 -48.869256 52.484083 -32.374286 -1.748167 2.149621 6.917652 7.125000 0.000000 0.000000 
24.807545 14.291855 -9.604313 91.041029 -89.312435 -117.526012 35.215796 -1.094771 -5.957480 -64.181130 20.853355 4.092089 15.434727 21.998827 70.494356 0.978800 6.297900 17.651400 -35.031451 14.993210 -7.095570 56.639742 -19.817418 -0.506635 -18.060541 -24.973672 73.181391 -0.842500 -5.854700 16.363400 23.245675 44.447975 3.387456 -2.790962 -16.117097 2.990221 -0.162925 15.116928 9.188256 1.238800 6.963300 3.726000 -84.258366 -40.567062 53.609304 46.409761 -53.290596 -23.908257 -4.030914 -6.946866 25.686850 -7.125000 0.000000 0.000000 71.218382 31.946700 42.956957 -49.006206 53.687350 -32.451079 -1.648533 2.120830 6.688736 7.125000 0.000000 0.000000 
24.799671 14.292584 -9.604021 93.457541 -89.745526 -119.839840 36.563490 -2.874434 -5.996706 -64.544982 21.137935 3.883731 15.835992 21.082586 69.978203 0.639100 5.114600 14.235600 -34.761295 14.658068 -7.018878 56.573183 -19.670128 -0.815942 -17.946167 -24.961087 73.346937 -0.747200 -5.521400 15.402000 25.406770 43.182780 2.869282 -3.234657 -15.308264 4.163821 0.014830 14.747171 9.293313 2.036200 6.777900 4.000200 -84.558774 -40.630295 53.537189 46.402817 -53.311944 -24.196416 -3.979584 -7.097546 25.476385 -7.125000 0.000000 0.000000 70.552958 32.379436 42.632742 -48.846415 53.181162 -32.472611 -1.577123 2.156157 6.349341 7.125000 0.000000 0.000000 
24.803171 14.288501 -9.606209 91.748670 -89.364597 -118.812053 36.161232 -2.602737 -6.066312 -64.486904 21.005651 3.930768 15.989546 21.012903 69.931036 0.619300 5.036100 14.011500 -34.729430 15.279381 -6.899762 56.718678 -19.911342 -0.891687 -17.874014 -25.129285 73.293261 -0.809600 -5.742000 16.037700 28.157652 40.108945 6.546628 -4.676093 -13.583131 3.970727 -0.712291 14.112820 8.996849 0.507600 6.363000 4.554900 -84.037286 -40.601930 52.771742 47.198197 -53.388148 -24.534973 -4.036820 -7.376122 25.097555 -7.125000 0.000000 0.000000 70.134398 33.397770 42.130712 -49.050615 52.418372 -32.586945 -1.580722 2.273594 6.141915 7.125000 0.000000 0.000000 
24.806816 14.282960 -9.603292 93.294900 -89.479453 -119.005351 36.118474 -1.269920 -5.852332 -64.533831 20.606778 3.382612 15.506532 21.132060 70.674778 0.695100 5.329700 14.851300 -34.921635 13.931943 -7.272979 56.491449 -19.737224 -0.324601 -18.001967 -25.218441 73.209159 -0.964900 -6.254200 17.523800 20.976513 46.135973 1.260473 -1.355030 -16.779416 3.219203 0.579743 14.050437 9.091278 2.930900 6.574800 2.942500 -84.164597 -40.169671 52.593085 46.832156 -53.326447 -24.912696 -3.850462 -7.119331 24.716111 -7.125000 0.000000 0.000000 71.337811 31.997680 43.574326 -49.043851 54.197760 -32.734717 -1.533069 2.127458 5.925058 7.125000 0.000000 0.000000 
24.795734 14.266628 -9.603438 89.585403 -88.799674 -115.446185 35.192583 0.070792 -5.825529 -64.341984 20.084567 2.838307 15.359014 21.283132 71.219529 0.847200 5.870800 16.409900 -35.591396 14.988783 -7.299113 56.948701 -20.408292 -0.635035 -17.941128 -25.128326 72.845639 -1.026500 -6.445100 18.081400 19.161322 46.504795 4.416206 -1.714133 -17.094805 2.683380 0.212090 13.407000 9.189139 1.563900 6.074800 4.299500 -83.733226 -40.676041 51.505659 47.454863 -53.491253 -25.025092 -3.817865 -7.128926 24.821690 -7.125000 0.000000 0.000000 71.905608 32.950869 43.788944 -49.281393 54.356598 -32.749110 -1.550685 2.104958 5.824767 7.125000 0.000000 0.000000 
24.786985 14.256275 -9.602709 90.569145 -87.822227 -116.178940 35.657083 -0.551658 -5.987388 -64.254920 20.384019 2.640379 15.541711 21.108991 71.079927 0.849500 5.878500 16.432200 -35.548575 14.375498 -7.155127 57.033060 -20.385406 -0.620282 -17.788571 -25.042571 72.874855 -0.990800 -6.335300 17.760400 14.468781 47.646606 6.892231 -1.229796 -18.044025 1.456610 0.482325 13.095192 9.144713 1.290800 5.886500 4.748100 -83.127867 -41.048785 50.428704 47.567792 -53.166799 -24.966229 -3.734683 -7.015202 25.111918 -7.125000 0.000000 0.000000 73.184591 33.655746 44.415624 -49.344140 54.898331 -32.836119 -1.527727 1.984249 6.004990 7.125000 0.000000 0.000000 
24.786547 14.258462 -9.598772 91.267850 -85.680208 -116.625101 35.734905 -0.733679 -6.020015 -64.001269 20.317715 1.931025 15.679286 20.800021 71.378948 0.665900 5.218700 14.533400 -35.715408 13.616977 -6.778193 57.149984 -20.346456 -0.170958 -17.618816 -24.976144 72.826369 -0.941100 -6.179000 17.304700 4.519339 48.434554 11.445790 0.712143 -19.538581 -1.879066 1.259396 12.724854 8.731641 1.232700 5.727400 4.652100 -80.326064 -41.806414 49.194805 47.209110 -51.338302 -25.086263 -3.894331 -6.891218 24.936030 -7.125000 0.000000 0.000000 73.581531 34.768023 44.949643 -48.545809 54.773423 -33.033170 -1.413551 1.777391 6.146752 7.125000 0.000000 0.000000 
24.786547 14.262691 -9.604313 91.330353 -84.769260 -116.647452 35.568182 -0.485225 -6.103231 -63.898331 20.180634 1.597201 15.680117 20.987865 71.554803 0.616600 5.025300 13.980800 -35.920869 13.513600 -6.638223 57.093255 -20.235302 0.259898 -17.623670 -25.094616 72.775557 -0.951000 -6.210500 17.396300 1.326571 48.173919 13.344364 1.385643 -19.849545 -3.099201 1.378357 12.315575 8.496039 0.990500 5.512200 4.604200 -79.348157 -42.012356 48.573646 47.210692 -50.682979 -25.277325 -4.029222 -6.837282 24.731831 -7.125000 0.000000 0.000000 73.406177 35.193559 45.038619 -48.327732 54.589122 -33.205846 -1.334790 1.726143 6.081908 7.125000 0.000000 0.000000 
24.789755 14.265607 -9.613062 93.298320 -87.403888 -118.974836 36.428566 -1.506818 -6.350633 -64.417762 20.941371 2.751325 15.794619 21.240279 70.525935 0.725400 5.442200 15.174200 -35.130387 13.518878 -6.901048 56.740404 -19.960400 -0.160884 -17.695943 -25.353145 73.080082 -0.958400 -6.233600 17.463800 14.831043 47.238120 8.573986 -1.716465 -17.455515 1.315376 0.080309 12.155189 8.832241 0.930700 5.375000 4.677700 -83.932507 -40.594347 48.977364 48.685844 -53.891262 -25.514367 -3.745038 -7.034270 24.819692 -7.125000 0.000000 0.000000 74.384721 33.955450 44.893192 -50.355860 55.614429 -33.411060 -1.504874 2.068954 5.936983 7.125000 0.000000 0.000000 
